<svg width="32" height="32" viewBox="0 0 32 32" fill="none" xmlns="http://www.w3.org/2000/svg">
<g clip-path="url(#clip0_8_218)">
<path d="M22 8H10V14H22V8Z" stroke="#10325F" stroke-width="2" stroke-linecap="round" stroke-linejoin="round"/>
<path d="M26 27V5C26 4.44772 25.5523 4 25 4L7 4C6.44772 4 6 4.44772 6 5V27C6 27.5523 6.44772 28 7 28H25C25.5523 28 26 27.5523 26 27Z" stroke="#10325F" stroke-width="2" stroke-linecap="round" stroke-linejoin="round"/>
<path d="M11.3684 25.2631C12.066 25.2631 12.6316 24.6976 12.6316 24C12.6316 23.3024 12.066 22.7368 11.3684 22.7368C10.6708 22.7368 10.1053 23.3024 10.1053 24C10.1053 24.6976 10.6708 25.2631 11.3684 25.2631Z" fill="#10325F"/>
<path d="M11.3684 20.2105C12.066 20.2105 12.6316 19.645 12.6316 18.9474C12.6316 18.2497 12.066 17.6842 11.3684 17.6842C10.6708 17.6842 10.1053 18.2497 10.1053 18.9474C10.1053 19.645 10.6708 20.2105 11.3684 20.2105Z" fill="#10325F"/>
<path d="M16.4211 25.2631C17.1187 25.2631 17.6842 24.6976 17.6842 24C17.6842 23.3024 17.1187 22.7368 16.4211 22.7368C15.7234 22.7368 15.1579 23.3024 15.1579 24C15.1579 24.6976 15.7234 25.2631 16.4211 25.2631Z" fill="#10325F"/>
<path d="M20.6316 25.2631C21.3292 25.2631 21.8947 24.6976 21.8947 24C21.8947 23.3024 21.3292 22.7368 20.6316 22.7368C19.9339 22.7368 19.3684 23.3024 19.3684 24C19.3684 24.6976 19.9339 25.2631 20.6316 25.2631Z" fill="#10325F"/>
<path d="M16.4211 20.2105C17.1187 20.2105 17.6842 19.645 17.6842 18.9474C17.6842 18.2497 17.1187 17.6842 16.4211 17.6842C15.7234 17.6842 15.1579 18.2497 15.1579 18.9474C15.1579 19.645 15.7234 20.2105 16.4211 20.2105Z" fill="#10325F"/>
<path d="M20.6316 20.2105C21.3292 20.2105 21.8947 19.645 21.8947 18.9474C21.8947 18.2497 21.3292 17.6842 20.6316 17.6842C19.9339 17.6842 19.3684 18.2497 19.3684 18.9474C19.3684 19.645 19.9339 20.2105 20.6316 20.2105Z" fill="#10325F"/>
</g>
<defs>
<clipPath id="clip0_8_218">
<rect width="32" height="32" fill="white"/>
</clipPath>
</defs>
</svg>
