<svg width="30" height="28" viewBox="0 0 30 28" fill="none" xmlns="http://www.w3.org/2000/svg">
<g clip-path="url(#clip0_12_23)">
<path d="M14.9757 18.375C17.4104 18.375 19.3842 16.4162 19.3842 14C19.3842 11.5838 17.4104 9.625 14.9757 9.625C12.541 9.625 10.5673 11.5838 10.5673 14C10.5673 16.4162 12.541 18.375 14.9757 18.375Z" stroke="#F5F5F5" stroke-width="2" stroke-miterlimit="10"/>
<path d="M19.825 3.9375H10.1265C7.20482 3.9375 4.83636 6.28801 4.83636 9.1875V18.8125C4.83636 21.712 7.20482 24.0625 10.1265 24.0625H19.825C22.7466 24.0625 25.1151 21.712 25.1151 18.8125V9.1875C25.1151 6.28801 22.7466 3.9375 19.825 3.9375Z" stroke="#F5F5F5" stroke-width="2" stroke-linecap="round" stroke-linejoin="round"/>
<path d="M20.1189 8.45833C20.5247 8.45833 20.8536 8.13187 20.8536 7.72917C20.8536 7.32646 20.5247 7 20.1189 7C19.7131 7 19.3842 7.32646 19.3842 7.72917C19.3842 8.13187 19.7131 8.45833 20.1189 8.45833Z" fill="#F5F5F5"/>
</g>
<defs>
<clipPath id="clip0_12_23">
<rect width="28.2139" height="28" fill="white" transform="translate(0.868774)"/>
</clipPath>
</defs>
</svg>
