<svg width="32" height="35" viewBox="0 0 32 35" fill="none" xmlns="http://www.w3.org/2000/svg">
<g clip-path="url(#clip0_8_213)">
<path d="M5.6375 26.7969C5.66949 26.9407 5.7275 27.076 5.8081 27.1949C5.88871 27.3137 5.99027 27.4137 6.1068 27.4889C6.22332 27.5641 6.35244 27.613 6.48653 27.6327C6.62063 27.6524 6.75697 27.6425 6.8875 27.6035C12.8462 25.799 19.1413 25.799 25.1 27.6035C25.2305 27.6425 25.3669 27.6524 25.501 27.6327C25.6351 27.613 25.7642 27.5641 25.8807 27.4889C25.9972 27.4137 26.0988 27.3137 26.1794 27.1949C26.26 27.076 26.318 26.9407 26.35 26.7969L29.5375 11.9903C29.5813 11.7921 29.5735 11.5845 29.5151 11.3908C29.4567 11.1972 29.35 11.0253 29.207 10.8945C29.064 10.7637 28.8904 10.6792 28.7059 10.6506C28.5213 10.6219 28.3331 10.6503 28.1625 10.7325L21.8375 13.8086C21.6083 13.919 21.3499 13.9326 21.1121 13.8467C20.8743 13.7609 20.6741 13.5817 20.55 13.3438L16.875 6.09769C16.7885 5.92673 16.6618 5.78424 16.5079 5.68501C16.354 5.58578 16.1786 5.53345 16 5.53345C15.8214 5.53345 15.646 5.58578 15.4921 5.68501C15.3382 5.78424 15.2115 5.92673 15.125 6.09769L11.45 13.3438C11.3259 13.5817 11.1257 13.7609 10.8879 13.8467C10.6501 13.9326 10.3917 13.919 10.1625 13.8086L3.8375 10.7325C3.66689 10.6503 3.47869 10.6219 3.29412 10.6506C3.10956 10.6792 2.93599 10.7637 2.79299 10.8945C2.65 11.0253 2.54329 11.1972 2.48489 11.3908C2.42649 11.5845 2.41874 11.7921 2.4625 11.9903L5.6375 26.7969Z" stroke="#10325F" stroke-width="3" stroke-linecap="round" stroke-linejoin="round"/>
<path d="M12 21C14.6589 21 17.3411 21 20 21" stroke="#10325F" stroke-width="3" stroke-linecap="round" stroke-linejoin="round"/>
</g>
<defs>
<clipPath id="clip0_8_213">
<rect width="32" height="35" fill="white"/>
</clipPath>
</defs>
</svg>
