<svg width="31" height="31" viewBox="0 0 31 31" fill="none" xmlns="http://www.w3.org/2000/svg">
<g clip-path="url(#clip0_8_255)">
<path d="M27.3066 15.5H23.4316C22.9178 15.5 22.425 15.7042 22.0616 16.0675C21.6983 16.4309 21.4941 16.9237 21.4941 17.4375V22.2813C21.4941 22.7951 21.6983 23.288 22.0616 23.6513C22.425 24.0147 22.9178 24.2188 23.4316 24.2188H25.3691C25.883 24.2188 26.3758 24.0147 26.7392 23.6513C27.1025 23.288 27.3066 22.7951 27.3066 22.2813V15.5ZM27.3066 15.5C27.3067 13.9652 27.0028 12.4456 26.4126 11.0289C25.8223 9.61209 24.9573 8.32624 23.8676 7.24548C22.7778 6.16472 21.4848 5.31046 20.0632 4.73198C18.6416 4.1535 17.1195 3.86225 15.5848 3.87504C14.051 3.86385 12.5302 4.15629 11.11 4.73549C9.68983 5.31469 8.39827 6.16921 7.3098 7.24981C6.22132 8.3304 5.35744 9.61571 4.76794 11.0317C4.17843 12.4476 3.87496 13.9663 3.875 15.5V22.2813C3.875 22.7951 4.07913 23.288 4.44248 23.6513C4.80583 24.0147 5.29864 24.2188 5.8125 24.2188H7.75C8.26386 24.2188 8.75667 24.0147 9.12002 23.6513C9.48337 23.288 9.6875 22.7951 9.6875 22.2813V17.4375C9.6875 16.9237 9.48337 16.4309 9.12002 16.0675C8.75667 15.7042 8.26386 15.5 7.75 15.5H3.875" stroke="#10325F" stroke-width="3" stroke-linecap="round" stroke-linejoin="round"/>
<path d="M27.3066 22.2812V25.1875C27.3066 26.2152 26.8984 27.2008 26.1717 27.9275C25.445 28.6542 24.4594 29.0625 23.4316 29.0625H16.4688" stroke="#10325F" stroke-width="3" stroke-linecap="round" stroke-linejoin="round"/>
</g>
<defs>
<clipPath id="clip0_8_255">
<rect width="31" height="31" fill="white"/>
</clipPath>
</defs>
</svg>
