<svg width="30" height="30" viewBox="0 0 30 30" fill="none" xmlns="http://www.w3.org/2000/svg">
<g clip-path="url(#clip0_8_244)">
<path d="M3.75 12.1875H9.375V24.375H3.75C3.50136 24.375 3.2629 24.2762 3.08709 24.1004C2.91127 23.9246 2.8125 23.6861 2.8125 23.4375V13.125C2.8125 12.8764 2.91127 12.6379 3.08709 12.4621C3.2629 12.2863 3.50136 12.1875 3.75 12.1875V12.1875Z" stroke="#10325F" stroke-width="3" stroke-linecap="round" stroke-linejoin="round"/>
<path d="M9.375 12.1875L14.0625 2.8125C15.0571 2.8125 16.0109 3.20759 16.7141 3.91085C17.4174 4.61411 17.8125 5.56794 17.8125 6.5625V9.375H25.0664C25.3323 9.37434 25.5952 9.43059 25.8375 9.53996C26.0798 9.64933 26.296 9.80929 26.4713 10.0091C26.6467 10.2089 26.7773 10.4439 26.8544 10.6984C26.9314 10.9528 26.9531 11.2208 26.918 11.4844L25.5117 22.7344C25.4548 23.186 25.2356 23.6015 24.8949 23.9034C24.5542 24.2052 24.1153 24.3729 23.6602 24.375H9.375" stroke="#10325F" stroke-width="3" stroke-linecap="round" stroke-linejoin="round"/>
</g>
<defs>
<clipPath id="clip0_8_244">
<rect width="30" height="30" fill="white"/>
</clipPath>
</defs>
</svg>
