<svg width="30" height="29" viewBox="0 0 30 29" fill="none" xmlns="http://www.w3.org/2000/svg">
<g clip-path="url(#clip0_12_6)">
<path d="M10.6356 14.1375C11.5753 16.0633 13.1444 17.6165 15.0874 18.5441C15.2307 18.6115 15.3892 18.6406 15.5473 18.6287C15.7054 18.6168 15.8577 18.5642 15.9891 18.4762L18.8428 16.5844C18.9689 16.4995 19.1145 16.4477 19.2662 16.4339C19.4179 16.42 19.5707 16.4445 19.7103 16.5051L25.0524 18.782C25.2349 18.8575 25.3875 18.9903 25.4865 19.1602C25.5855 19.3301 25.6255 19.5276 25.6003 19.7223C25.4309 21.0338 24.7859 22.2391 23.7858 23.1127C22.7858 23.9864 21.4992 24.4685 20.1669 24.4688C16.0497 24.4688 12.1011 22.8456 9.1898 19.9564C6.2785 17.0671 4.64294 13.1485 4.64294 9.06251C4.64324 7.74028 5.129 6.46347 6.00931 5.47099C6.88962 4.4785 8.10417 3.83835 9.42569 3.67032C9.62183 3.64531 9.82083 3.68499 9.99202 3.78325C10.1632 3.8815 10.2971 4.03288 10.3731 4.21407L12.6674 9.52696C12.7271 9.66329 12.7521 9.81209 12.7401 9.96025C12.7282 10.1084 12.6797 10.2514 12.599 10.3766L10.6927 13.2539C10.6078 13.3841 10.558 13.5336 10.548 13.6883C10.5381 13.843 10.5682 13.9977 10.6356 14.1375V14.1375Z" stroke="white" stroke-width="2" stroke-linecap="round" stroke-linejoin="round"/>
</g>
<defs>
<clipPath id="clip0_12_6">
<rect width="29.2215" height="29" fill="white" transform="translate(0.0770874)"/>
</clipPath>
</defs>
</svg>
